 <svg  version="1.0" xmlns="http://www.w3.org/2000/svg"  width="300.000000pt" height="300.000000pt" viewBox="0 0 300.000000 300.000000"  preserveAspectRatio="xMidYMid meet">  <g transform="translate(0.000000,300.000000) scale(0.100000,-0.100000)" fill="#613583" stroke="none"> <path d="M503 2044 c-230 -188 -225 -183 -220 -197 2 -7 27 -13 56 -15 l53 -3 -44 -47 c-97 -104 -133 -204 -126 -351 10 -182 99 -323 258 -405 87 -45 156 -60 249 -53 97 7 176 37 254 95 227 173 253 525 53 725 l-36 36 53 3 c40 2 52 7 52 20 0 16 -393 338 -413 338 -6 0 -91 -65 -189 -146z m339 -10 c73 -59 148 -120 165 -137 l33 -30 -31 -19 c-29 -18 -33 -18 -49 -3 -15 14 -52 16 -265 16 -214 0 -250 -2 -265 -16 -17 -15 -20 -15 -45 1 -14 9 -24 22 -22 28 6 19 311 266 329 266 9 0 76 -48 150 -106z m113 -291 c8 -103 11 -116 28 -110 8 3 11 25 10 73 l-3 69 30 -35 c45 -52 88 -147 100 -221 19 -110 -16 -242 -87 -336 -43 -56 -137 -120 -210 -143 -87 -27 -109 -25 -52 5 71 37 119 107 119 175 0 63 -54 146 -114 177 -37 19 -122 21 -156 3 -83 -42 -131 -140 -110 -222 17 -61 55 -107 114 -135 l51 -24 -45 6 c-67 8 -183 69 -240 126 -27 27 -64 79 -82 116 -32 65 -33 73 -33 188 0 116 1 122 33 185 18 36 47 81 64 100 l30 35 -6 -67 c-4 -44 -3 -69 5 -73 20 -13 28 10 35 103 l7 92 253 0 252 0 7 -87z m-202 -377 c104 -43 129 -180 47 -257 -111 -106 -284 -7 -256 145 18 93 122 149 209 112z"/> <path d="M646 1749 c-53 -42 -21 -139 46 -139 40 0 57 10 73 41 21 39 19 53 -11 88 -31 37 -69 41 -108 10z m75 -30 c20 -10 19 -38 -3 -66 -21 -27 -78 26 -59 54 5 8 23 18 39 22 2 1 12 -4 23 -10z"/> <path d="M475 1655 c-29 -28 -31 -51 -9 -83 32 -46 114 -17 114 41 0 22 -43 67 -65 67 -9 0 -27 -11 -40 -25z m58 -40 c7 -17 -8 -29 -28 -21 -17 6 -9 36 10 36 7 0 15 -7 18 -15z"/> <path d="M835 1655 c-29 -28 -31 -51 -9 -83 29 -42 97 -24 109 30 5 21 1 33 -19 52 -31 32 -50 33 -81 1z"/> <path d="M342 1617 c-17 -20 7 -79 47 -122 42 -44 58 -82 66 -157 4 -38 10 -68 14 -68 3 0 14 20 24 45 21 49 72 100 123 121 102 43 237 -15 280 -121 11 -25 22 -45 25 -45 4 0 10 21 13 48 4 26 9 64 12 84 4 24 20 53 45 82 36 41 69 101 69 126 0 5 -9 10 -20 10 -11 0 -20 -4 -20 -8 0 -21 -76 -82 -121 -97 -28 -9 -55 -25 -62 -36 -10 -16 -13 -14 -32 23 -27 53 -79 82 -130 72 -41 -7 -95 -56 -95 -85 0 -24 -12 -24 -34 0 -10 10 -37 24 -61 30 -40 10 -66 31 -112 90 -17 20 -20 21 -31 8z m412 -106 l28 -29 -81 -1 c-44 0 -81 4 -81 9 0 17 53 50 79 50 17 0 38 -11 55 -29z m-214 -69 c0 -14 -38 -51 -52 -52 -5 0 -8 10 -8 23 0 12 -7 31 -15 41 -11 15 -12 22 -3 27 15 10 78 -21 78 -39z m400 34 c0 -2 -10 -23 -22 -45 l-22 -41 -23 22 c-29 27 -29 40 0 54 22 11 67 18 67 10z"/> <path d="M310 1430 c0 -34 36 -94 68 -112 17 -10 33 -18 36 -18 10 0 7 50 -5 73 -33 63 -99 101 -99 57z"/> <path d="M1026 1420 c-34 -30 -67 -102 -53 -116 15 -16 73 34 91 79 27 65 11 80 -38 37z"/> <path d="M362 1239 c36 -62 118 -115 118 -76 0 20 -37 75 -62 91 -13 8 -36 18 -52 22 l-30 7 26 -44z"/> <path d="M991 1262 c-36 -18 -65 -52 -76 -89 -15 -54 73 -3 112 65 28 47 20 53 -36 24z"/> <path d="M680 1326 c0 -8 -9 -18 -20 -21 -23 -7 -37 -51 -23 -73 5 -9 25 -21 44 -27 44 -15 52 -45 12 -45 -16 0 -34 5 -40 11 -8 8 -14 6 -22 -9 -9 -18 -7 -21 19 -31 17 -5 30 -15 30 -20 0 -18 16 -12 49 16 21 19 31 37 31 56 0 24 -7 31 -46 48 -52 24 -53 45 -1 42 43 -3 60 23 22 33 -14 3 -25 12 -25 20 0 8 -7 14 -15 14 -8 0 -15 -6 -15 -14z"/> <path d="M1742 1920 c-43 -10 -51 -19 -29 -31 15 -9 17 -28 17 -159 0 -88 -4 -151 -10 -155 -25 -15 -5 -25 50 -25 64 0 69 4 44 31 -10 11 -14 31 -12 60 l3 44 49 -68 c48 -65 51 -67 93 -67 45 0 53 9 27 31 -9 7 -36 39 -61 71 l-44 58 28 25 c15 13 41 29 56 36 42 18 28 31 -36 32 -57 2 -57 2 -52 -23 4 -20 -2 -33 -30 -60 l-35 -34 0 122 c0 132 3 127 -58 112z"/> <path d="M2175 1923 c-43 -6 -50 -18 -26 -42 21 -21 22 -31 20 -174 l-1 -152 38 -4 c119 -11 157 2 195 62 16 25 19 44 16 86 -3 46 -9 59 -36 83 -39 34 -87 37 -125 7 l-27 -22 2 79 c2 85 3 85 -56 77z m148 -181 c48 -53 19 -172 -42 -172 -6 0 -20 9 -31 20 -16 16 -20 33 -20 83 0 36 5 68 12 75 18 18 63 14 81 -6z"/> <path d="M1455 1887 c9 -35 -81 -294 -107 -308 -31 -16 -10 -29 48 -29 54 0 69 11 38 28 -12 7 -15 17 -9 41 l7 32 66 -3 c63 -3 67 -5 77 -31 8 -24 6 -30 -8 -38 -34 -19 -16 -29 53 -29 39 0 70 3 70 7 0 3 -8 15 -17 26 -10 10 -43 87 -74 171 l-56 151 -47 3 c-45 3 -46 2 -41 -21z m68 -130 l25 -67 -49 0 c-27 0 -49 4 -49 8 0 13 42 133 45 130 2 -2 15 -34 28 -71z"/> <path d="M2025 1890 c-9 -28 12 -52 44 -48 22 2 26 8 26 33 0 26 -4 30 -32 33 -25 2 -33 -1 -38 -18z"/> <path d="M2050 1803 c-50 -8 -54 -12 -36 -31 12 -14 16 -39 16 -105 0 -47 -4 -89 -10 -92 -25 -15 -5 -25 50 -25 57 0 79 13 45 26 -12 5 -15 28 -15 120 0 85 -3 114 -12 113 -7 -1 -24 -4 -38 -6z"/> <path d="M2500 1792 c-25 -12 -36 -25 -38 -44 -3 -23 1 -28 18 -28 12 0 25 10 32 25 16 36 48 43 70 15 29 -36 19 -50 -52 -73 -52 -18 -68 -28 -79 -51 -12 -26 -12 -33 0 -55 22 -38 62 -47 109 -23 22 11 40 15 40 11 0 -19 45 -31 73 -20 32 12 35 27 7 34 -18 5 -20 14 -20 95 0 86 -1 92 -26 111 -33 26 -87 27 -134 3z m100 -141 c0 -60 -72 -86 -78 -28 -3 23 2 30 30 42 46 20 48 19 48 -14z"/> <path d="M1323 1467 c-3 -5 2 -16 11 -26 23 -25 23 -242 1 -261 -28 -23 -16 -30 50 -30 61 0 85 13 50 26 -10 4 -15 20 -15 50 l0 44 40 0 c73 0 120 41 120 105 0 37 -26 82 -52 91 -30 11 -199 11 -205 1z m167 -37 c25 -25 27 -86 3 -112 -9 -10 -29 -18 -45 -18 l-28 0 0 75 c0 73 1 75 25 75 14 0 34 -9 45 -20z"/> <path d="M2503 1464 c-8 -22 10 -49 32 -49 10 0 22 7 28 16 15 24 1 49 -28 49 -15 0 -28 -7 -32 -16z"/> <path d="M1630 1372 c-26 -12 -35 -23 -35 -42 0 -36 27 -36 47 0 25 44 56 38 72 -16 5 -17 0 -22 -43 -33 -27 -7 -58 -21 -70 -32 -23 -22 -28 -68 -9 -87 18 -18 84 -15 103 5 16 16 18 16 27 0 10 -19 63 -23 73 -7 3 6 -1 17 -9 26 -12 11 -16 36 -16 87 0 78 -4 88 -37 106 -31 16 -62 14 -103 -7z m82 -137 c-5 -44 -36 -65 -60 -41 -20 20 -8 44 29 63 34 18 35 17 31 -22z"/> <path d="M1860 1383 c-34 -6 -47 -20 -32 -35 15 -15 16 -164 2 -173 -24 -15 -6 -25 45 -25 54 0 65 6 45 26 -6 6 -10 43 -8 85 3 69 5 74 26 77 39 6 52 -14 52 -83 0 -43 -5 -66 -15 -75 -24 -20 -7 -30 51 -30 52 0 71 11 39 24 -11 4 -15 23 -15 80 0 72 1 76 25 82 48 12 55 1 55 -80 0 -41 -4 -78 -10 -81 -24 -15 -6 -25 45 -25 54 0 64 6 46 26 -5 5 -11 47 -13 92 -3 74 -6 86 -27 103 -30 25 -62 24 -95 -2 l-26 -20 -26 20 c-34 26 -68 27 -94 1 -24 -24 -28 -25 -26 -4 1 19 -9 23 -44 17z"/> <path d="M2300 1373 c-75 -39 -91 -142 -29 -197 29 -25 37 -28 87 -24 47 4 60 10 84 37 40 44 40 117 1 161 -36 40 -93 49 -143 23z m84 -32 c36 -40 29 -150 -11 -165 -19 -8 -50 9 -63 34 -16 30 -12 116 6 134 21 21 47 20 68 -3z"/> <path d="M2522 1380 c-43 -10 -49 -17 -28 -33 14 -11 16 -28 14 -132 l-3 -120 -28 3 c-25 3 -28 1 -25 -20 2 -18 10 -24 34 -26 25 -2 37 3 58 28 25 31 26 35 26 171 0 76 -3 139 -7 138 -5 -1 -23 -5 -41 -9z"/> <path d="M2650 1372 c-26 -12 -35 -24 -35 -41 0 -34 22 -38 36 -7 22 48 79 42 79 -9 0 -17 -9 -24 -42 -34 -68 -20 -88 -37 -88 -74 0 -18 5 -38 12 -45 18 -18 79 -15 101 5 18 17 19 17 28 0 11 -19 64 -23 75 -6 4 7 -1 16 -10 21 -13 7 -16 25 -16 88 0 73 -2 80 -26 99 -33 26 -68 27 -114 3z m80 -137 c0 -42 -33 -67 -57 -42 -19 19 -9 51 20 65 34 16 37 15 37 -23z"/> </g> </svg> 